<?xml version="1.0"?>
<svg xmlns="http://www.w3.org/2000/svg"
    xmlns:xlink="http://www.w3.org/1999/xlink"
    xmlns:svgjs="http://svgjs.com/svgjs" version="1.1" width="512" height="512" x="0" y="0" viewBox="0 0 360 360" style="enable-background:new 0 0 512 512" xml:space="preserve" class="">
    <g>
        <path xmlns="http://www.w3.org/2000/svg" d="m270.199219 83.898438c-5.523438 0-10 4.480468-10 10 0 5.523437 4.476562 10 10 10 38.550781 0 69.800781 31.253906 69.800781 69.800781 0 38.550781-31.25 69.800781-69.800781 69.800781-5.523438 0-10 4.476562-10 10s4.476562 10 10 10c49.597656 0 89.800781-40.203125 89.800781-89.800781 0-49.59375-40.203125-89.800781-89.800781-89.800781zm0 0" fill="#b8b8b8" data-original="#000000" style="" class=""/>
        <path xmlns="http://www.w3.org/2000/svg" d="m213.300781 347.300781-133.601562-93.902343c-1.886719-2.582032-4.898438-4.109376-8.097657-4.097657h-41.601562c-16.546875-.050781-29.953125-13.453125-30-30v-91.300781c.046875-16.546875 13.453125-29.953125 30-30h41.601562c3.195313-.011719 6.195313-1.53125 8.097657-4.101562l133.601562-93.898438zm0 0" fill="#b8b8b8" data-original="#000000" style="" class=""/>
    </g>
</svg>
